<?xml version="1.0" encoding="iso-8859-1"?>
<!-- Generator: Adobe Illustrator 19.0.0, SVG Export Plug-In . SVG Version: 6.00 Build 0)  -->
<svg version="1.1" id="Capa_1" xmlns="http://www.w3.org/2000/svg" xmlns:xlink="http://www.w3.org/1999/xlink" x="0px" y="0px"
	 viewBox="0 0 512 512" style="enable-background:new 0 0 512 512;" xml:space="preserve">
<circle style="fill:#25D9F8;" cx="256" cy="256" r="256"/>
<path style="fill:#00C0F1;" d="M506.5,308.967l-178.96-178.96L238,137l-51,68l-31.547,42.469L137.172,412l99.262,99.262
	C242.892,511.75,249.417,512,256,512C379.224,512,482.1,424.934,506.5,308.967z"/>
<path style="fill:#5A5A5A;" d="M256,100c-55.393,0-100.547,45.154-100.547,100.547v56.063h54.844v-56.063
	c0-25.228,20.475-45.703,45.703-45.703s45.703,20.475,45.703,45.703v56.063h54.844v-56.063C356.547,145.154,311.393,100,256,100z"/>
<path style="fill:#444444;" d="M356.547,200.547v56.063h-54.844v-56.063c0-25.228-20.475-45.703-45.703-45.703V100
	C311.393,100,356.547,145.154,356.547,200.547z"/>
<path style="fill:#FFD400;" d="M137.172,247.469V412h237.656V247.469H137.172z"/>
<rect x="256" y="247.47" style="fill:#FF9F00;" width="118.83" height="164.53"/>
<g>
	<path style="fill:#5A5A5A;" d="M256,284.031c-15.174,0-27.422,12.248-27.422,27.422c0,15.173,12.248,27.422,27.422,27.422
		c15.174,0,27.422-12.249,27.422-27.422C283.422,296.279,271.174,284.031,256,284.031z"/>
	<rect x="246.86" y="329.73" style="fill:#5A5A5A;" width="18.281" height="45.703"/>
</g>
<g>
	<path style="fill:#444444;" d="M283.422,311.453c0,15.173-12.248,27.422-27.422,27.422v-54.844
		C271.174,284.031,283.422,296.279,283.422,311.453z"/>
	<rect x="256" y="329.73" style="fill:#444444;" width="9.141" height="45.703"/>
</g>
<g>
</g>
<g>
</g>
<g>
</g>
<g>
</g>
<g>
</g>
<g>
</g>
<g>
</g>
<g>
</g>
<g>
</g>
<g>
</g>
<g>
</g>
<g>
</g>
<g>
</g>
<g>
</g>
<g>
</g>
</svg>
